<svg xmlns="http://www.w3.org/2000/svg" width="16" height="16" fill="none"><rect width="16" height="16" fill="url(#a)" rx="4"/><path fill="#fff" d="M11.427 5.24a2.509 2.509 0 0 0-.59-.068c-.203 0-.396.023-.588.069a2.699 2.699 0 0 0-2.073 2.627c0 1.48 1.19 2.685 2.65 2.685 1.462 0 2.651-1.205 2.651-2.685a2.646 2.646 0 0 0-2.05-2.627zm-.59 3.867a1.245 1.245 0 0 1-1.234-1.25c0-.689.555-1.25 1.235-1.25s1.235.561 1.235 1.25c0 .688-.555 1.25-1.235 1.25zM5.162 5.172C3.7 5.172 2.51 6.377 2.51 7.868c0 1.285.906 2.375 2.107 2.628.181.034.362.057.555.057.192 0 .374-.023.555-.057 1.2-.253 2.107-1.343 2.107-2.628-.011-1.491-1.212-2.696-2.673-2.696zm0 3.936c-.68 0-1.235-.563-1.235-1.251 0-.689.555-1.25 1.235-1.25s1.234.561 1.234 1.25c0 .688-.555 1.25-1.234 1.25z"/><path fill="#4AE6D2" d="M13.5 2.613h-1.416c0 .689-.555 1.251-1.235 1.251s-1.235-.562-1.235-1.25H8.198c0 1.273.884 2.351 2.073 2.627a2.507 2.507 0 0 1 1.178 0c1.156-.276 2.05-1.354 2.05-2.628zm-8.893 7.871A2.695 2.695 0 0 0 2.5 13.112h1.416c0-.688.555-1.25 1.235-1.25s1.235.562 1.235 1.25h1.416a2.676 2.676 0 0 0-2.107-2.628 2.94 2.94 0 0 1-.556.058 2.05 2.05 0 0 1-.532-.058z"/><defs><linearGradient id="a" x1="8" x2="8" y1="0" y2="16" gradientUnits="userSpaceOnUse"><stop stop-color="#0C161D"/><stop offset="1" stop-color="#322693"/></linearGradient></defs></svg>